<svg width="1200" height="675" viewBox="0 0 1200 675" fill="none" xmlns="http://www.w3.org/2000/svg">
  <!-- Poolside logomark: poolside.ai, reversed (dark-background) variant, used to identify the provider. -->
  <defs>
    <linearGradient id="base" x1="0" y1="0" x2="1200" y2="675" gradientUnits="userSpaceOnUse">
      <stop stop-color="#2A1361"/>
      <stop offset=".52" stop-color="#1A0B44"/>
      <stop offset="1" stop-color="#0C0524"/>
    </linearGradient>
    <radialGradient id="blobViolet" cx=".5" cy=".5" r=".5">
      <stop stop-color="#8B5CF6" stop-opacity=".85"/>
      <stop offset="1" stop-color="#8B5CF6" stop-opacity="0"/>
    </radialGradient>
    <radialGradient id="blobIndigo" cx=".5" cy=".5" r=".5">
      <stop stop-color="#4137FF" stop-opacity=".8"/>
      <stop offset="1" stop-color="#4137FF" stop-opacity="0"/>
    </radialGradient>
    <radialGradient id="blobMagenta" cx=".5" cy=".5" r=".5">
      <stop stop-color="#C026D3" stop-opacity=".62"/>
      <stop offset="1" stop-color="#C026D3" stop-opacity="0"/>
    </radialGradient>
    <radialGradient id="blobLilac" cx=".5" cy=".5" r=".5">
      <stop stop-color="#C4B5FD" stop-opacity=".5"/>
      <stop offset="1" stop-color="#C4B5FD" stop-opacity="0"/>
    </radialGradient>
    <radialGradient id="markHalo" cx=".5" cy=".5" r=".5">
      <stop stop-color="#DED3FF" stop-opacity=".38"/>
      <stop offset=".55" stop-color="#7C5CFF" stop-opacity=".16"/>
      <stop offset="1" stop-color="#7C5CFF" stop-opacity="0"/>
    </radialGradient>
    <radialGradient id="vignette" cx=".5" cy=".5" r=".5">
      <stop offset=".45" stop-color="#08030F" stop-opacity="0"/>
      <stop offset="1" stop-color="#08030F" stop-opacity=".56"/>
    </radialGradient>
    <linearGradient id="ringSheen" x1="600" y1="97" x2="600" y2="577" gradientUnits="userSpaceOnUse">
      <stop stop-color="#FFFFFF" stop-opacity=".22"/>
      <stop offset="1" stop-color="#FFFFFF" stop-opacity=".03"/>
    </linearGradient>
    <filter id="mesh" x="-25%" y="-25%" width="150%" height="150%">
      <feGaussianBlur stdDeviation="70"/>
    </filter>
    <filter id="markGlow" x="-45%" y="-45%" width="190%" height="190%">
      <feDropShadow dx="0" dy="16" stdDeviation="26" flood-color="#1A0A3E" flood-opacity=".55"/>
    </filter>
    <filter id="grain" x="0" y="0" width="100%" height="100%">
      <feTurbulence type="fractalNoise" baseFrequency=".9" numOctaves="3" stitchTiles="stitch"/>
      <feColorMatrix type="saturate" values="0"/>
    </filter>
    <clipPath id="canvas">
      <rect width="1200" height="675" rx="34"/>
    </clipPath>
  </defs>

  <g clip-path="url(#canvas)">
    <rect width="1200" height="675" fill="url(#base)"/>

    <g filter="url(#mesh)">
      <ellipse cx="286" cy="132" rx="470" ry="400" fill="url(#blobViolet)"/>
      <ellipse cx="988" cy="586" rx="520" ry="430" fill="url(#blobIndigo)"/>
      <ellipse cx="1012" cy="128" rx="430" ry="360" fill="url(#blobMagenta)"/>
      <ellipse cx="188" cy="596" rx="410" ry="340" fill="url(#blobLilac)"/>
      <ellipse cx="600" cy="338" rx="440" ry="300" fill="url(#blobIndigo)"/>
    </g>

    <circle cx="600" cy="338" r="330" fill="url(#markHalo)"/>
    <circle cx="600" cy="338" r="240" stroke="url(#ringSheen)" stroke-width="1.5"/>
    <circle cx="600" cy="338" r="304" stroke="url(#ringSheen)" stroke-width="1" stroke-opacity=".6"/>

    <svg x="450" y="188" width="300" height="300" viewBox="0 0 128 128" filter="url(#markGlow)">
      <path d="m35.959 121.526c-11.8772-5.794-21.5249-14.947-27.90834-26.4686-6.23593-11.2582-8.930092-23.9574-7.798832-36.7265.256124-2.8615 2.777032-4.9741 5.639732-4.7214 2.85734.2545 4.97334 2.7778 4.72074 5.641-.94779 10.6955 1.3128 21.3362 6.538 30.7705 4.4985 8.1229 10.9417 14.84 18.8061 19.656l24.4606-50.1633c-9.5744-3.1888-17.5492-1.8007-18.2669-1.6613-.1053.0243-.2071.0414-.3106.0621-2.3841.3992-4.6901-.9038-5.6184-3.0702-1.2811-2.3919-5.1275-8.2384-9.7828-10.5094-4.6552-2.2711-11.8298-1.5385-14.1394-1.0363-1.9474.4252-3.97402-.3009-5.20405-1.8667-1.23003-1.5659-1.4658-3.7015-.5927-5.492 15.45775-31.71872 53.84575-44.93849 85.55925-29.46724 31.7136 15.47124 44.9196 53.82984 29.4886 85.53934-.016.0323-.032.0647-.049.1006-15.485 31.6834-53.8429 44.8774-85.542 29.4134zm33.8009-57.4544-24.4588 50.1594c24.6863 9.222 52.7773-1.024 65.6229-24.3097-1.806-2.7947-4.974-6.8014-8.641-8.5902-4.7375-2.3114-11.6793-1.5543-14.0641-1.0532-.3926.0933-.7839.1383-1.1773.1422-.7048.0034-1.4199-.1363-2.1061-.4355-.7114-.3114-1.3547-.781-1.874-1.386-.2968-.3495-.5421-.7317-.7393-1.1395-.1533-.3062-3.9466-7.6667-12.5659-13.3893zm-38.7651-29.0902c3.9831 1.9431 7.2244 5.0332 9.6483 7.947 7.496-11.4666 17.6688-20.1275 25.527-25.7116 2.9201-2.0736 5.9436-4.0123 8.8552-5.6852-20.4537-4.29467-41.8903 3.8115-54.3197 20.8782 3.2899.2252 6.9209.9284 10.2892 2.5716zm67.5712-11.9611c.4747 3.3248.8105 6.8979.9729 10.4798.4384 9.6049-.1169 22.9086-4.5038 35.8475 3.6589.0981 7.9139.7451 11.8069 2.6443 3.476 1.6959 6.39 4.2614 8.684 6.8223 5.855-20.3405-.95-42.2864-16.9617-55.7903zm-28.7702 29.1142c7.1932 3.5091 12.3927 8.1776 15.9169 12.2023 5.733-18.6289 3.2338-39.4757 1.1469-47.1965-7.3675 3.1085-25.3335 13.9715-36.4767 29.961 5.3459.2981 12.2232 1.5257 19.4129 5.0332z" fill="#FFFFFF"/>
    </svg>

    <rect width="1200" height="675" fill="url(#vignette)"/>
    <rect width="1200" height="675" filter="url(#grain)" opacity=".16" style="mix-blend-mode:overlay"/>
    <rect x=".5" y=".5" width="1199" height="674" rx="33.5" stroke="#FFFFFF" stroke-opacity=".1"/>
  </g>
</svg>
